<svg xmlns="http://www.w3.org/2000/svg" viewBox="-0 -0 126.16 131.14" role="img" aria-label="Rossi Soares Estética Avançada">
<title>Rossi Soares Estética Avançada</title>
<path d="M 0 121.18 L 0 78.02 C 0 33.2 33.2 0 64.74 0 C 102.92 0 117.86 28.22 117.86 59.76 C 102.92 66.4 83 61.42 79.68 43.16 C 79.68 26.56 71.38 13.28 54.78 11.62 C 34.86 8.3 23.24 18.26 29.88 33.2 C 38.18 51.46 59.76 51.46 86.32 64.74 C 126.16 84.66 124.5 112.88 83 124.5 C 106.24 102.92 91.3 81.34 63.08 68.06 C 46.48 58.1 31.54 51.46 26.56 34.86 C 21.58 54.78 21.58 63.08 36.52 79.68 C 61.42 107.9 48.14 131.14 0 121.18" fill="#514640" fill-rule="evenodd" clip-rule="evenodd"/>
</svg>